<?xml version="1.0" encoding="utf-8" ?>
<svg baseProfile="tiny" height="100%" version="1.2" width="100%" xmlns="http://www.w3.org/2000/svg" xmlns:ev="http://www.w3.org/2001/xml-events" xmlns:xlink="http://www.w3.org/1999/xlink"><defs /><line stroke="black" x1="30" x2="30" y1="100" y2="125" /><line stroke="black" x1="20" x2="30" y1="125" y2="150" /><line stroke="black" x1="30" x2="30" y1="150" y2="175" /><text fill="black" x="36" y="136">k1</text><line stroke="black" x1="30" x2="30" y1="175" y2="200" /><line stroke="black" x1="40" x2="30" y1="200" y2="200" /><line stroke="black" x1="40" x2="30" y1="200" y2="225" /><line stroke="black" x1="30" x2="30" y1="225" y2="250" /><text fill="black" x="46" y="211">k2</text><line stroke="black" x1="30" x2="30" y1="250" y2="270" /><line stroke="black" x1="10" x2="50" y1="270" y2="270" /><line stroke="black" x1="10" x2="10" y1="270" y2="290" /><line stroke="black" x1="50" x2="50" y1="270" y2="290" /><line stroke="black" x1="10" x2="50" y1="290" y2="290" /><line stroke="black" x1="30" x2="30" y1="290" y2="310" /><text fill="black" x="56" y="286">k1</text></svg>