<?xml version="1.0" encoding="utf-8" ?>
<svg xmlns="http://www.w3.org/2000/svg" xmlns:ev="http://www.w3.org/2001/xml-events" xmlns:xlink="http://www.w3.org/1999/xlink" baseProfile="full" height="350" version="1.1" width="800">
  <defs/>
  <circle cx="50" cy="50" r="2.5"/>
  <line stroke="black" x1="50" x2="50" y1="50" y2="75.0"/>
  <line stroke="black" x1="40" x2="50" y1="75.0" y2="100"/>
  <line stroke="black" x1="50" x2="50" y1="100" y2="125.0"/>
  <text fill="black" x="56.0" y="86.0">S1</text>
  <circle cx="50" cy="125.0" r="2.5"/>
  <line stroke="black" x1="50" x2="50" y1="125.0" y2="150.0"/>
  <line stroke="black" x1="60" x2="50" y1="150.0" y2="150.0"/>
  <line stroke="black" x1="60" x2="50" y1="150.0" y2="175.0"/>
  <line stroke="black" x1="50" x2="50" y1="175.0" y2="200.0"/>
  <text fill="black" x="66.0" y="161.0">K5</text>
  <line stroke="black" x1="50" x2="50" y1="200.0" y2="220.0"/>
  <rect fill="none" height="20" stroke="black" width="40" x="30" y="220.0"/>
  <line stroke="black" x1="50" x2="50" y1="240.0" y2="260.0"/>
  <text fill="black" x="76.0" y="230.0">K1</text>
  <circle cx="50" cy="260.0" r="2.5"/>
  <circle cx="100" cy="50" r="2.5"/>
  <line stroke="black" x1="100" x2="100" y1="50" y2="75.0"/>
  <line stroke="black" x1="90" x2="100" y1="75.0" y2="100"/>
  <line stroke="black" x1="100" x2="100" y1="100" y2="125.0"/>
  <text fill="black" x="106.0" y="86.0">K1</text>
  <line stroke="black" x1="100" x2="50" y1="125.0" y2="125.0"/>
  <circle cx="150" cy="50" r="2.5"/>
  <line stroke="black" x1="150" x2="150" y1="50" y2="75.0"/>
  <line stroke="black" x1="140" x2="150" y1="75.0" y2="100"/>
  <line stroke="black" x1="150" x2="150" y1="100" y2="125.0"/>
  <text fill="black" x="156.0" y="86.0">1S2</text>
  <circle cx="150" cy="125.0" r="2.5"/>
  <line stroke="black" x1="150" x2="150" y1="125.0" y2="150.0"/>
  <line stroke="black" x1="140" x2="150" y1="150.0" y2="175.0"/>
  <line stroke="black" x1="150" x2="150" y1="175.0" y2="200.0"/>
  <text fill="black" x="156.0" y="161.0">K1</text>
  <line stroke="black" x1="150" x2="150" y1="200.0" y2="220.0"/>
  <rect fill="none" height="20" stroke="black" width="40" x="130" y="220.0"/>
  <line stroke="black" x1="150" x2="150" y1="240.0" y2="260.0"/>
  <text fill="black" x="176.0" y="230.0">K2</text>
  <circle cx="150" cy="260.0" r="2.5"/>
  <circle cx="200" cy="50" r="2.5"/>
  <line stroke="black" x1="200" x2="200" y1="50" y2="75.0"/>
  <line stroke="black" x1="190" x2="200" y1="75.0" y2="100"/>
  <line stroke="black" x1="200" x2="200" y1="100" y2="125.0"/>
  <text fill="black" x="206.0" y="86.0">K2</text>
  <line stroke="black" x1="200" x2="150" y1="125.0" y2="125.0"/>
  <circle cx="250" cy="50" r="2.5"/>
  <line stroke="black" x1="250" x2="250" y1="50" y2="75.0"/>
  <line stroke="black" x1="240" x2="250" y1="75.0" y2="100"/>
  <line stroke="black" x1="250" x2="250" y1="100" y2="125.0"/>
  <text fill="black" x="256.0" y="86.0">2S1</text>
  <circle cx="250" cy="125.0" r="2.5"/>
  <line stroke="black" x1="250" x2="250" y1="125.0" y2="150.0"/>
  <line stroke="black" x1="240" x2="250" y1="150.0" y2="175.0"/>
  <line stroke="black" x1="250" x2="250" y1="175.0" y2="200.0"/>
  <text fill="black" x="256.0" y="161.0">K2</text>
  <line stroke="black" x1="250" x2="250" y1="200.0" y2="220.0"/>
  <rect fill="none" height="20" stroke="black" width="40" x="230" y="220.0"/>
  <line stroke="black" x1="250" x2="250" y1="240.0" y2="260.0"/>
  <text fill="black" x="276.0" y="230.0">K3</text>
  <circle cx="250" cy="260.0" r="2.5"/>
  <circle cx="300" cy="50" r="2.5"/>
  <line stroke="black" x1="300" x2="300" y1="50" y2="75.0"/>
  <line stroke="black" x1="290" x2="300" y1="75.0" y2="100"/>
  <line stroke="black" x1="300" x2="300" y1="100" y2="125.0"/>
  <text fill="black" x="306.0" y="86.0">K3</text>
  <line stroke="black" x1="300" x2="250" y1="125.0" y2="125.0"/>
  <circle cx="350" cy="50" r="2.5"/>
  <line stroke="black" x1="350" x2="350" y1="50" y2="75.0"/>
  <line stroke="black" x1="340" x2="350" y1="75.0" y2="100"/>
  <line stroke="black" x1="350" x2="350" y1="100" y2="125.0"/>
  <text fill="black" x="356.0" y="86.0">1S2</text>
  <circle cx="350" cy="125.0" r="2.5"/>
  <line stroke="black" x1="350" x2="350" y1="125.0" y2="150.0"/>
  <line stroke="black" x1="340" x2="350" y1="150.0" y2="175.0"/>
  <line stroke="black" x1="350" x2="350" y1="175.0" y2="200.0"/>
  <text fill="black" x="356.0" y="161.0">K3</text>
  <line stroke="black" x1="350" x2="350" y1="200.0" y2="220.0"/>
  <rect fill="none" height="20" stroke="black" width="40" x="330" y="220.0"/>
  <line stroke="black" x1="350" x2="350" y1="240.0" y2="260.0"/>
  <text fill="black" x="376.0" y="230.0">K4</text>
  <circle cx="350" cy="260.0" r="2.5"/>
  <circle cx="400" cy="50" r="2.5"/>
  <line stroke="black" x1="400" x2="400" y1="50" y2="75.0"/>
  <line stroke="black" x1="390" x2="400" y1="75.0" y2="100"/>
  <line stroke="black" x1="400" x2="400" y1="100" y2="125.0"/>
  <text fill="black" x="406.0" y="86.0">K4</text>
  <line stroke="black" x1="400" x2="350" y1="125.0" y2="125.0"/>
  <line stroke="black" x1="450" x2="450" y1="50" y2="75.0"/>
  <line stroke="black" x1="440" x2="450" y1="75.0" y2="100"/>
  <line stroke="black" x1="450" x2="450" y1="100" y2="125.0"/>
  <text fill="black" x="456.0" y="86.0">2S1</text>
  <line stroke="black" x1="450" x2="450" y1="125.0" y2="150.0"/>
  <line stroke="black" x1="440" x2="450" y1="150.0" y2="175.0"/>
  <line stroke="black" x1="450" x2="450" y1="175.0" y2="200.0"/>
  <text fill="black" x="456.0" y="161.0">K4</text>
  <line stroke="black" x1="450" x2="450" y1="200.0" y2="220.0"/>
  <rect fill="none" height="20" stroke="black" width="40" x="430" y="220.0"/>
  <line stroke="black" x1="450" x2="450" y1="240.0" y2="260.0"/>
  <text fill="black" x="476.0" y="230.0">K5</text>
  <line stroke="black" x1="50" x2="450" y1="50" y2="50"/>
  <line stroke="black" x1="450" x2="50" y1="260.0" y2="260.0"/>
  <text fill="black" x="50" y="300">https://github.com/samuelc254/Electro-pneumatic-circuit-drawer</text>
  <text fill="black" x="50" y="27.77777777777778">Electro-pneumatic circuit drawer v0.1.3</text>
  <text fill="black" x="350" y="27.77777777777778">['a', '+', 'b', '-', 'a', '+', 'b', '-']</text>
</svg>
